<svg xmlns="http://www.w3.org/2000/svg" width="2400" height="240" viewBox="0 0 2400 240"><rect x="0" y="0" width="2400.0" height="240.0" fill="#F6F2EA"/><path d="M304.5 240.0 L303.6 239.2 L301.6 237.4 L298.2 234.4 L296.8 233.2 L292.7 229.6 L292.0 229.0 L287.2 224.8 L287.2 224.8 L282.4 220.7 L281.6 220.0 L277.6 216.5 L276.1 215.2 L272.8 212.4 L270.5 210.4 L268.0 208.2 L265.0 205.6 L263.2 204.1 L259.4 200.8 L258.4 200.0 L253.8 196.0 L253.6 195.8 L248.8 191.7 L248.2 191.2 L244.0 187.6 L242.6 186.4 L239.2 183.5 L236.9 181.6 L234.4 179.4 L231.3 176.8 L229.6 175.3 L225.7 172.0 L224.8 171.3 L220.0 167.2 L220.0 167.2 L215.2 163.1 L214.4 162.4 L210.4 159.1 L208.7 157.6 L205.6 155.0 L203.0 152.8 L200.8 151.0 L197.3 148.0 L196.0 146.9 L191.6 143.2 L191.2 142.9 L186.4 138.9 L185.8 138.4 L181.6 134.9 L180.1 133.6 L176.8 130.9 L174.3 128.8 L172.0 126.9 L168.5 124.0 L167.2 122.9 L162.7 119.2 L162.4 119.0 L157.6 115.0 L156.8 114.4 L152.8 111.1 L150.9 109.6 L148.0 107.2 L145.0 104.8 L143.2 103.3 L139.0 100.0 L138.4 99.5 L133.6 95.7 L133.0 95.2 L128.8 91.8 L127.0 90.4 L124.0 88.1 L120.8 85.6 L119.2 84.3 L114.7 80.8 L114.4 80.6 L109.6 76.9 L108.4 76.0 L104.8 73.2 L102.1 71.2 L100.0 69.6 L95.7 66.4 L95.2 66.0 L90.4 62.5 L89.2 61.6 L85.6 59.0 L82.6 56.8 L80.8 55.5 L76.0 52.1 L75.9 52.0 L71.2 48.7 L69.0 47.2 L66.4 45.4 L62.1 42.4 L61.6 42.1 L56.8 38.8 L54.9 37.6 L52.0 35.6 L47.6 32.8 L47.2 32.5 L42.4 29.4 L40.2 28.0 L37.6 26.4 L32.8 23.4 L32.5 23.2 L28.0 20.5 L24.5 18.4 L23.2 17.6 L18.4 14.8 L16.3 13.6 L13.6 12.0 L8.8 9.3 L7.8 8.8 L4.0 6.7 L0.0 4.5 M2011.1 240.0 L2010.4 239.7 L2009.5 239.2 L2005.6 237.4 L2000.8 235.1 L1999.4 234.4 L1996.0 232.8 L1991.2 230.5 L1989.2 229.6 L1986.4 228.3 L1981.6 226.1 L1978.8 224.8 L1976.8 223.9 L1972.0 221.7 L1968.3 220.0 L1967.2 219.5 L1962.4 217.3 L1957.6 215.2 L1957.6 215.2 L1952.8 213.1 L1948.0 211.0 L1946.7 210.4 L1943.2 208.9 L1938.4 206.8 L1935.7 205.6 L1933.6 204.7 L1928.8 202.6 L1924.4 200.8 L1924.0 200.6 L1919.2 198.6 L1914.4 196.6 L1913.0 196.0 L1909.6 194.6 L1904.8 192.6 L1901.4 191.2 L1900.0 190.6 L1895.2 188.7 L1890.4 186.8 L1889.5 186.4 L1885.6 184.8 L1880.8 182.9 L1877.4 181.6 L1876.0 181.0 L1871.2 179.2 L1866.4 177.3 L1865.1 176.8 L1861.6 175.5 L1856.8 173.6 L1852.5 172.0 L1852.0 171.8 L1847.2 170.0 L1842.4 168.2 L1839.6 167.2 L1837.6 166.5 L1832.8 164.7 L1828.0 163.0 L1826.5 162.4 L1823.2 161.2 L1818.4 159.5 L1813.6 157.8 L1813.0 157.6 L1808.8 156.1 L1804.0 154.5 L1799.2 152.8 L1799.2 152.8 L1794.4 151.2 L1789.6 149.6 L1785.0 148.0 L1784.8 147.9 L1780.0 146.3 L1775.2 144.8 L1770.4 143.2 L1770.4 143.2 L1765.6 141.7 L1760.8 140.1 L1756.0 138.6 L1755.4 138.4 L1751.2 137.1 L1746.4 135.6 L1741.6 134.1 L1739.9 133.6 L1736.8 132.7 L1732.0 131.2 L1727.2 129.8 L1723.8 128.8 L1722.4 128.4 L1717.6 127.0 L1712.8 125.6 L1708.0 124.2 L1707.2 124.0 L1703.2 122.9 L1698.4 121.5 L1693.6 120.2 L1690.0 119.2 L1688.8 118.9 L1684.0 117.6 L1679.2 116.3 L1674.4 115.0 L1672.0 114.4 L1669.6 113.8 L1664.8 112.5 L1660.0 111.3 L1655.2 110.1 L1653.1 109.6 L1650.4 108.9 L1645.6 107.8 L1640.8 106.6 L1636.0 105.5 L1633.2 104.8 L1631.2 104.3 L1626.4 103.2 L1621.6 102.1 L1616.8 101.0 L1612.1 100.0 L1612.0 100.0 L1607.2 98.9 L1602.4 97.9 L1597.6 96.9 L1592.8 95.9 L1589.6 95.2 L1588.0 94.9 L1583.2 93.9 L1578.4 92.9 L1573.6 92.0 L1568.8 91.1 L1565.2 90.4 L1564.0 90.2 L1559.2 89.3 L1554.4 88.4 L1549.6 87.6 L1544.8 86.7 L1540.0 85.9 L1538.3 85.6 L1535.2 85.1 L1530.4 84.3 L1525.6 83.5 L1520.8 82.8 L1516.0 82.0 L1511.2 81.3 L1507.9 80.8 L1506.4 80.6 L1501.6 79.9 L1496.8 79.2 L1492.0 78.6 L1487.2 77.9 L1482.4 77.3 L1477.6 76.7 L1472.8 76.1 L1471.8 76.0 L1468.0 75.5 L1463.2 75.0 L1458.4 74.5 L1453.6 73.9 L1448.8 73.4 L1444.0 73.0 L1439.2 72.5 L1434.4 72.1 L1429.6 71.6 L1424.8 71.2 L1424.3 71.2 L1420.0 70.9 L1415.2 70.5 L1410.4 70.1 L1405.6 69.8 L1400.8 69.5 L1396.0 69.2 L1391.2 68.9 L1386.4 68.7 L1381.6 68.5 L1376.8 68.2 L1372.0 68.1 L1367.2 67.9 L1362.4 67.7 L1357.6 67.6 L1352.8 67.5 L1348.0 67.4 L1343.2 67.3 L1338.4 67.3 L1333.6 67.3 L1328.8 67.3 L1324.0 67.3 L1319.2 67.3 L1314.4 67.4 L1309.6 67.5 L1304.8 67.6 L1300.0 67.7 L1295.2 67.9 L1290.4 68.0 L1285.6 68.2 L1280.8 68.5 L1276.0 68.7 L1271.2 69.0 L1266.4 69.3 L1261.6 69.6 L1256.8 70.0 L1252.0 70.3 L1247.2 70.7 L1242.4 71.2 L1242.0 71.2 L1237.6 71.6 L1232.8 72.1 L1228.0 72.6 L1223.2 73.1 L1218.4 73.7 L1213.6 74.3 L1208.8 74.9 L1204.0 75.5 L1200.7 76.0 L1199.2 76.2 L1194.4 76.9 L1189.6 77.7 L1184.8 78.4 L1180.0 79.2 L1175.2 80.0 L1171.0 80.8 L1170.4 80.9 L1165.6 81.8 L1160.8 82.7 L1156.0 83.7 L1151.2 84.7 L1146.8 85.6 L1146.4 85.7 L1141.6 86.8 L1136.8 87.9 L1132.0 89.0 L1127.2 90.2 L1126.2 90.4 L1122.4 91.4 L1117.6 92.6 L1112.8 93.9 L1108.1 95.2 L1108.0 95.2 L1103.2 96.6 L1098.4 98.0 L1093.6 99.5 L1091.9 100.0 L1088.8 101.0 L1084.0 102.5 L1079.2 104.1 L1077.1 104.8 L1074.4 105.7 L1069.6 107.4 L1064.8 109.1 L1063.5 109.6 L1060.0 110.9 L1055.2 112.7 L1051.0 114.4 L1050.4 114.6 L1045.6 116.6 L1040.8 118.5 L1039.2 119.2 L1036.0 120.6 L1031.2 122.7 L1028.3 124.0 L1026.4 124.9 L1021.6 127.1 L1018.0 128.8 L1016.8 129.4 L1012.0 131.7 L1008.2 133.6 L1007.2 134.1 L1002.4 136.6 L999.0 138.4 L997.6 139.1 L992.8 141.8 L990.2 143.2 L988.0 144.5 L983.2 147.2 L981.9 148.0 L978.4 150.1 L973.9 152.8 L973.6 153.0 L968.8 156.0 L966.3 157.6 L964.0 159.1 L959.2 162.3 L959.0 162.4 L954.4 165.5 L952.0 167.2 L949.6 168.9 L945.3 172.0 L944.8 172.3 L940.0 175.9 L938.8 176.8 L935.2 179.6 L932.6 181.6 L930.4 183.3 L926.6 186.4 L925.6 187.2 L920.8 191.2 L920.8 191.2 L916.0 195.3 L915.2 196.0 L911.2 199.6 L909.8 200.8 L906.4 204.0 L904.6 205.6 L901.6 208.5 L899.6 210.4 L896.8 213.1 L894.7 215.2 L892.0 218.0 L890.0 220.0 L887.2 223.0 L885.5 224.8 L882.4 228.1 L881.0 229.6 L877.6 233.5 L876.8 234.4 L872.8 239.0 L872.7 239.2 L872.0 240.0" fill="none" stroke="#1B2A4A" stroke-width="2" stroke-linecap="butt"/><path d="M330.9 240.0 L330.4 239.6 L330.0 239.2 L325.6 235.7 L324.1 234.4 L320.8 231.7 L318.2 229.6 L316.0 227.8 L312.3 224.8 L311.2 223.9 L306.4 220.0 L306.4 220.0 L301.6 216.1 L300.5 215.2 L296.8 212.2 L294.7 210.4 L292.0 208.2 L288.8 205.6 L287.2 204.3 L282.9 200.8 L282.4 200.4 L277.6 196.4 L277.1 196.0 L272.8 192.5 L271.2 191.2 L268.0 188.6 L265.4 186.4 L263.2 184.6 L259.5 181.6 L258.4 180.7 L253.7 176.8 L253.6 176.7 L248.8 172.7 L247.9 172.0 L244.0 168.8 L242.1 167.2 L239.2 164.8 L236.3 162.4 L234.4 160.8 L230.5 157.6 L229.6 156.8 L224.8 152.8 L224.7 152.8 L220.0 148.9 L219.0 148.0 L215.2 144.9 L213.2 143.2 L210.4 140.9 L207.4 138.4 L205.6 136.9 L201.7 133.6 L200.8 132.9 L196.0 128.9 L195.9 128.8 L191.2 124.9 L190.1 124.0 L186.4 120.9 L184.3 119.2 L181.6 116.9 L178.5 114.4 L176.8 113.0 L172.7 109.6 L172.0 109.0 L167.2 105.0 L166.9 104.8 L162.4 101.1 L161.1 100.0 L157.6 97.1 L155.2 95.2 L152.8 93.2 L149.3 90.4 L148.0 89.3 L143.4 85.6 L143.2 85.4 L138.4 81.5 L137.5 80.8 L133.6 77.7 L131.5 76.0 L128.8 73.8 L125.5 71.2 L124.0 70.0 L119.4 66.4 L119.2 66.2 L114.4 62.4 L113.3 61.6 L109.6 58.7 L107.1 56.8 L104.8 55.0 L100.9 52.0 L100.0 51.3 L95.2 47.7 L94.6 47.2 L90.4 44.1 L88.2 42.4 L85.6 40.5 L81.7 37.6 L80.8 37.0 L76.0 33.5 L75.1 32.8 L71.2 30.0 L68.4 28.0 L66.4 26.6 L61.6 23.3 L61.5 23.2 L56.8 19.9 L54.5 18.4 L52.0 16.7 L47.4 13.6 L47.2 13.5 L42.4 10.3 L40.0 8.8 L37.6 7.2 L32.8 4.2 L32.5 4.0 L28.0 1.2 L26.1 0.0 M2053.4 240.0 L2051.9 239.2 L2048.8 237.7 L2044.0 235.2 L2042.3 234.4 L2039.2 232.8 L2034.4 230.5 L2032.6 229.6 L2029.6 228.1 L2024.8 225.8 L2022.8 224.8 L2020.0 223.4 L2015.2 221.1 L2012.9 220.0 L2010.4 218.8 L2005.6 216.5 L2002.8 215.2 L2000.8 214.2 L1996.0 212.0 L1992.6 210.4 L1991.2 209.7 L1986.4 207.5 L1982.3 205.6 L1981.6 205.3 L1976.8 203.1 L1972.0 200.9 L1971.8 200.8 L1967.2 198.7 L1962.4 196.6 L1961.1 196.0 L1957.6 194.4 L1952.8 192.3 L1950.3 191.2 L1948.0 190.2 L1943.2 188.1 L1939.3 186.4 L1938.4 186.0 L1933.6 184.0 L1928.8 181.9 L1928.1 181.6 L1924.0 179.9 L1919.2 177.8 L1916.7 176.8 L1914.4 175.8 L1909.6 173.8 L1905.2 172.0 L1904.8 171.9 L1900.0 169.9 L1895.2 167.9 L1893.4 167.2 L1890.4 166.0 L1885.6 164.1 L1881.4 162.4 L1880.8 162.2 L1876.0 160.3 L1871.2 158.4 L1869.2 157.6 L1866.4 156.5 L1861.6 154.7 L1856.8 152.8 L1856.7 152.8 L1852.0 151.0 L1847.2 149.2 L1844.0 148.0 L1842.4 147.4 L1837.6 145.6 L1832.8 143.9 L1831.0 143.2 L1828.0 142.1 L1823.2 140.4 L1818.4 138.6 L1817.7 138.4 L1813.6 136.9 L1808.8 135.2 L1804.1 133.6 L1804.0 133.6 L1799.2 131.9 L1794.4 130.2 L1790.2 128.8 L1789.6 128.6 L1784.8 127.0 L1780.0 125.4 L1775.9 124.0 L1775.2 123.8 L1770.4 122.2 L1765.6 120.6 L1761.2 119.2 L1760.8 119.1 L1756.0 117.5 L1751.2 116.0 L1746.4 114.5 L1746.1 114.4 L1741.6 113.0 L1736.8 111.5 L1732.0 110.0 L1730.6 109.6 L1727.2 108.6 L1722.4 107.1 L1717.6 105.7 L1714.5 104.8 L1712.8 104.3 L1708.0 102.9 L1703.2 101.5 L1698.4 100.2 L1697.8 100.0 L1693.6 98.8 L1688.8 97.5 L1684.0 96.1 L1680.6 95.2 L1679.2 94.8 L1674.4 93.5 L1669.6 92.2 L1664.8 91.0 L1662.6 90.4 L1660.0 89.7 L1655.2 88.5 L1650.4 87.3 L1645.6 86.1 L1643.7 85.6 L1640.8 84.9 L1636.0 83.7 L1631.2 82.5 L1626.4 81.4 L1623.9 80.8 L1621.6 80.2 L1616.8 79.1 L1612.0 78.0 L1607.2 76.9 L1603.0 76.0 L1602.4 75.9 L1597.6 74.8 L1592.8 73.8 L1588.0 72.7 L1583.2 71.7 L1580.7 71.2 L1578.4 70.7 L1573.6 69.7 L1568.8 68.8 L1564.0 67.8 L1559.2 66.9 L1556.7 66.4 L1554.4 66.0 L1549.6 65.0 L1544.8 64.2 L1540.0 63.3 L1535.2 62.4 L1530.5 61.6 L1530.4 61.6 L1525.6 60.8 L1520.8 59.9 L1516.0 59.1 L1511.2 58.4 L1506.4 57.6 L1501.6 56.9 L1501.2 56.8 L1496.8 56.1 L1492.0 55.4 L1487.2 54.7 L1482.4 54.0 L1477.6 53.4 L1472.8 52.7 L1468.0 52.1 L1467.4 52.0 L1463.2 51.5 L1458.4 50.9 L1453.6 50.3 L1448.8 49.7 L1444.0 49.2 L1439.2 48.6 L1434.4 48.1 L1429.6 47.6 L1425.2 47.2 L1424.8 47.2 L1420.0 46.7 L1415.2 46.3 L1410.4 45.8 L1405.6 45.4 L1400.8 45.0 L1396.0 44.7 L1391.2 44.3 L1386.4 44.0 L1381.6 43.7 L1376.8 43.4 L1372.0 43.1 L1367.2 42.8 L1362.4 42.6 L1358.5 42.4 L1357.6 42.4 L1352.8 42.2 L1348.0 42.0 L1343.2 41.8 L1338.4 41.7 L1333.6 41.5 L1328.8 41.4 L1324.0 41.4 L1319.2 41.3 L1314.4 41.2 L1309.6 41.2 L1304.8 41.2 L1300.0 41.2 L1295.2 41.3 L1290.4 41.3 L1285.6 41.4 L1280.8 41.5 L1276.0 41.7 L1271.2 41.8 L1266.4 42.0 L1261.6 42.2 L1256.8 42.4 L1256.5 42.4 L1252.0 42.6 L1247.2 42.9 L1242.4 43.2 L1237.6 43.5 L1232.8 43.8 L1228.0 44.2 L1223.2 44.6 L1218.4 45.0 L1213.6 45.4 L1208.8 45.9 L1204.0 46.3 L1199.2 46.9 L1196.2 47.2 L1194.4 47.4 L1189.6 48.0 L1184.8 48.6 L1180.0 49.2 L1175.2 49.8 L1170.4 50.5 L1165.6 51.2 L1160.8 51.9 L1160.4 52.0 L1156.0 52.7 L1151.2 53.5 L1146.4 54.3 L1141.6 55.2 L1136.8 56.1 L1132.9 56.8 L1132.0 57.0 L1127.2 57.9 L1122.4 58.9 L1117.6 59.9 L1112.8 61.0 L1110.1 61.6 L1108.0 62.1 L1103.2 63.2 L1098.4 64.4 L1093.6 65.6 L1090.4 66.4 L1088.8 66.8 L1084.0 68.1 L1079.2 69.4 L1074.4 70.7 L1072.8 71.2 L1069.6 72.1 L1064.8 73.6 L1060.0 75.1 L1057.0 76.0 L1055.2 76.6 L1050.4 78.2 L1045.6 79.8 L1042.6 80.8 L1040.8 81.4 L1036.0 83.1 L1031.2 84.9 L1029.3 85.6 L1026.4 86.7 L1021.6 88.6 L1017.0 90.4 L1016.8 90.5 L1012.0 92.4 L1007.2 94.4 L1005.4 95.2 L1002.4 96.5 L997.6 98.6 L994.6 100.0 L992.8 100.8 L988.0 103.1 L984.4 104.8 L983.2 105.4 L978.4 107.8 L974.8 109.6 L973.6 110.2 L968.8 112.7 L965.6 114.4 L964.0 115.3 L959.2 117.9 L956.8 119.2 L954.4 120.6 L949.6 123.4 L948.5 124.0 L944.8 126.2 L940.5 128.8 L940.0 129.1 L935.2 132.1 L932.9 133.6 L930.4 135.2 L925.6 138.3 L925.5 138.4 L920.8 141.6 L918.4 143.2 L916.0 144.9 L911.6 148.0 L911.2 148.3 L906.4 151.8 L905.0 152.8 L901.6 155.3 L898.6 157.6 L896.8 159.0 L892.5 162.4 L892.0 162.8 L887.2 166.6 L886.5 167.2 L882.4 170.6 L880.7 172.0 L877.6 174.6 L875.1 176.8 L872.8 178.8 L869.6 181.6 L868.0 183.1 L864.3 186.4 L863.2 187.4 L859.2 191.2 L858.4 191.9 L854.1 196.0 L853.6 196.5 L849.3 200.8 L848.8 201.3 L844.5 205.6 L844.0 206.1 L839.9 210.4 L839.2 211.1 L835.3 215.2 L834.4 216.2 L830.9 220.0 L829.6 221.5 L826.6 224.8 L824.8 226.9 L822.4 229.6 L820.0 232.5 L818.4 234.4 L815.2 238.2 L814.4 239.2 L813.7 240.0" fill="none" stroke="#1B2A4A" stroke-width="2" stroke-linecap="butt"/><path d="M383.1 240.0 L381.9 239.2 L378.4 236.9 L374.6 234.4 L373.6 233.8 L368.8 230.6 L367.3 229.6 L364.0 227.4 L360.2 224.8 L359.2 224.1 L354.4 220.9 L353.1 220.0 L349.6 217.6 L346.1 215.2 L344.8 214.3 L340.0 210.9 L339.2 210.4 L335.2 207.6 L332.4 205.6 L330.4 204.2 L325.6 200.8 L325.6 200.8 L320.8 197.3 L319.0 196.0 L316.0 193.9 L312.3 191.2 L311.2 190.4 L306.4 186.9 L305.8 186.4 L301.6 183.3 L299.3 181.6 L296.8 179.8 L292.9 176.8 L292.0 176.2 L287.2 172.6 L286.5 172.0 L282.4 168.9 L280.2 167.2 L277.6 165.3 L273.9 162.4 L272.8 161.6 L268.0 157.9 L267.7 157.6 L263.2 154.1 L261.5 152.8 L258.4 150.4 L255.4 148.0 L253.6 146.6 L249.3 143.2 L248.8 142.8 L244.0 139.0 L243.3 138.4 L239.2 135.2 L237.3 133.6 L234.4 131.3 L231.3 128.8 L229.6 127.4 L225.3 124.0 L224.8 123.6 L220.0 119.7 L219.4 119.2 L215.2 115.7 L213.6 114.4 L210.4 111.8 L207.7 109.6 L205.6 107.9 L201.9 104.8 L200.8 103.9 L196.1 100.0 L196.0 99.9 L191.2 95.9 L190.3 95.2 L186.4 92.0 L184.5 90.4 L181.6 88.0 L178.8 85.6 L176.8 84.0 L173.0 80.8 L172.0 80.0 L167.3 76.0 L167.2 76.0 L162.4 72.0 L161.5 71.2 L157.6 67.9 L155.7 66.4 L152.8 63.9 L150.0 61.6 L148.0 60.0 L144.2 56.8 L143.2 56.0 L138.4 52.0 L138.4 52.0 L133.6 48.0 L132.6 47.2 L128.8 44.1 L126.8 42.4 L124.0 40.1 L120.9 37.6 L119.2 36.2 L115.0 32.8 L114.4 32.3 L109.6 28.5 L109.0 28.0 L104.8 24.6 L103.0 23.2 L100.0 20.8 L97.0 18.4 L95.2 17.0 L90.9 13.6 L90.4 13.2 L85.6 9.5 L84.7 8.8 L80.8 5.8 L78.4 4.0 L76.0 2.2 L73.1 0.0 M2119.6 240.0 L2118.1 239.2 L2116.0 238.1 L2111.2 235.5 L2109.2 234.4 L2106.4 232.9 L2101.6 230.3 L2100.2 229.6 L2096.8 227.8 L2092.0 225.2 L2091.2 224.8 L2087.2 222.7 L2082.4 220.2 L2082.0 220.0 L2077.6 217.7 L2072.8 215.3 L2072.7 215.2 L2068.0 212.8 L2063.3 210.4 L2063.2 210.3 L2058.4 207.9 L2053.8 205.6 L2053.6 205.5 L2048.8 203.1 L2044.2 200.8 L2044.0 200.7 L2039.2 198.3 L2034.5 196.0 L2034.4 196.0 L2029.6 193.6 L2024.8 191.3 L2024.6 191.2 L2020.0 189.0 L2015.2 186.7 L2014.6 186.4 L2010.4 184.4 L2005.6 182.1 L2004.5 181.6 L2000.8 179.8 L1996.0 177.6 L1994.3 176.8 L1991.2 175.4 L1986.4 173.1 L1983.9 172.0 L1981.6 170.9 L1976.8 168.8 L1973.4 167.2 L1972.0 166.6 L1967.2 164.4 L1962.7 162.4 L1962.4 162.3 L1957.6 160.1 L1952.8 158.0 L1951.9 157.6 L1948.0 155.9 L1943.2 153.8 L1940.9 152.8 L1938.4 151.7 L1933.6 149.7 L1929.7 148.0 L1928.8 147.6 L1924.0 145.6 L1919.2 143.5 L1918.4 143.2 L1914.4 141.5 L1909.6 139.5 L1906.9 138.4 L1904.8 137.5 L1900.0 135.6 L1895.2 133.6 L1895.2 133.6 L1890.4 131.7 L1885.6 129.7 L1883.3 128.8 L1880.8 127.8 L1876.0 125.9 L1871.2 124.0 L1871.1 124.0 L1866.4 122.1 L1861.6 120.3 L1858.8 119.2 L1856.8 118.4 L1852.0 116.6 L1847.2 114.8 L1846.2 114.4 L1842.4 112.9 L1837.6 111.2 L1833.4 109.6 L1832.8 109.4 L1828.0 107.6 L1823.2 105.8 L1820.3 104.8 L1818.4 104.1 L1813.6 102.4 L1808.8 100.6 L1807.0 100.0 L1804.0 98.9 L1799.2 97.2 L1794.4 95.6 L1793.3 95.2 L1789.6 93.9 L1784.8 92.3 L1780.0 90.6 L1779.3 90.4 L1775.2 89.0 L1770.4 87.4 L1765.6 85.8 L1765.0 85.6 L1760.8 84.2 L1756.0 82.6 L1751.2 81.1 L1750.4 80.8 L1746.4 79.5 L1741.6 78.0 L1736.8 76.5 L1735.3 76.0 L1732.0 75.0 L1727.2 73.5 L1722.4 72.0 L1719.8 71.2 L1717.6 70.5 L1712.8 69.1 L1708.0 67.7 L1703.8 66.4 L1703.2 66.2 L1698.4 64.8 L1693.6 63.4 L1688.8 62.0 L1687.3 61.6 L1684.0 60.7 L1679.2 59.3 L1674.4 58.0 L1670.2 56.8 L1669.6 56.6 L1664.8 55.3 L1660.0 54.0 L1655.2 52.7 L1652.4 52.0 L1650.4 51.5 L1645.6 50.2 L1640.8 48.9 L1636.0 47.7 L1634.0 47.2 L1631.2 46.5 L1626.4 45.3 L1621.6 44.1 L1616.8 42.9 L1614.7 42.4 L1612.0 41.8 L1607.2 40.6 L1602.4 39.5 L1597.6 38.3 L1594.4 37.6 L1592.8 37.2 L1588.0 36.1 L1583.2 35.1 L1578.4 34.0 L1573.6 32.9 L1573.0 32.8 L1568.8 31.9 L1564.0 30.9 L1559.2 29.9 L1554.4 28.9 L1550.1 28.0 L1549.6 27.9 L1544.8 26.9 L1540.0 26.0 L1535.2 25.0 L1530.4 24.1 L1525.6 23.2 L1525.6 23.2 L1520.8 22.3 L1516.0 21.4 L1511.2 20.6 L1506.4 19.7 L1501.6 18.9 L1498.8 18.4 L1496.8 18.1 L1492.0 17.2 L1487.2 16.5 L1482.4 15.7 L1477.6 14.9 L1472.8 14.2 L1469.0 13.6 L1468.0 13.4 L1463.2 12.7 L1458.4 12.0 L1453.6 11.3 L1448.8 10.7 L1444.0 10.0 L1439.2 9.4 L1434.7 8.8 L1434.4 8.8 L1429.6 8.2 L1424.8 7.6 L1420.0 7.0 L1415.2 6.4 L1410.4 5.9 L1405.6 5.4 L1400.8 4.9 L1396.0 4.4 L1392.4 4.0 L1391.2 3.9 L1386.4 3.4 L1381.6 3.0 L1376.8 2.5 L1372.0 2.1 L1367.2 1.7 L1362.4 1.4 L1357.6 1.0 L1352.8 0.7 L1348.0 0.3 L1343.2 0.0 L1342.8 0.0 M1191.3 0.0 L1189.6 0.1 L1184.8 0.5 L1180.0 0.8 L1175.2 1.2 L1170.4 1.6 L1165.6 2.1 L1160.8 2.6 L1156.0 3.1 L1151.2 3.6 L1147.5 4.0 L1146.4 4.1 L1141.6 4.7 L1136.8 5.3 L1132.0 5.9 L1127.2 6.6 L1122.4 7.3 L1117.6 8.0 L1112.8 8.7 L1112.3 8.8 L1108.0 9.5 L1103.2 10.3 L1098.4 11.1 L1093.6 12.0 L1088.8 12.9 L1085.2 13.6 L1084.0 13.8 L1079.2 14.8 L1074.4 15.8 L1069.6 16.8 L1064.8 17.9 L1062.7 18.4 L1060.0 19.0 L1055.2 20.2 L1050.4 21.4 L1045.6 22.6 L1043.2 23.2 L1040.8 23.8 L1036.0 25.1 L1031.2 26.5 L1026.4 27.9 L1026.0 28.0 L1021.6 29.3 L1016.8 30.8 L1012.0 32.3 L1010.6 32.8 L1007.2 33.9 L1002.4 35.5 L997.6 37.2 L996.5 37.6 L992.8 38.9 L988.0 40.7 L983.5 42.4 L983.2 42.5 L978.4 44.4 L973.6 46.3 L971.4 47.2 L968.8 48.3 L964.0 50.3 L960.2 52.0 L959.2 52.4 L954.4 54.6 L949.6 56.8 L949.6 56.8 L944.8 59.1 L940.0 61.4 L939.6 61.6 L935.2 63.8 L930.4 66.2 L930.1 66.4 L925.6 68.8 L921.0 71.2 L920.8 71.3 L916.0 74.0 L912.4 76.0 L911.2 76.7 L906.4 79.5 L904.1 80.8 L901.6 82.3 L896.8 85.2 L896.2 85.6 L892.0 88.2 L888.5 90.4 L887.2 91.2 L882.4 94.3 L881.1 95.2 L877.6 97.5 L873.9 100.0 L872.8 100.7 L868.0 104.0 L866.9 104.8 L863.2 107.4 L860.1 109.6 L858.4 110.9 L853.6 114.4 L853.5 114.4 L848.8 117.9 L847.1 119.2 L844.0 121.6 L840.8 124.0 L839.2 125.3 L834.7 128.8 L834.4 129.0 L829.6 132.9 L828.7 133.6 L824.8 136.8 L822.8 138.4 L820.0 140.7 L817.1 143.2 L815.2 144.8 L811.4 148.0 L810.4 148.8 L805.8 152.8 L805.6 153.0 L800.8 157.2 L800.3 157.6 L796.0 161.4 L794.9 162.4 L791.2 165.7 L789.6 167.2 L786.4 170.1 L784.3 172.0 L781.6 174.5 L779.1 176.8 L776.8 179.0 L774.0 181.6 L772.0 183.5 L768.9 186.4 L767.2 188.0 L763.9 191.2 L762.4 192.6 L758.9 196.0 L757.6 197.3 L753.9 200.8 L752.8 201.9 L749.0 205.6 L748.0 206.6 L744.1 210.4 L743.2 211.3 L739.3 215.2 L738.4 216.1 L734.4 220.0 L733.6 220.8 L729.6 224.8 L728.8 225.6 L724.8 229.6 L724.0 230.4 L720.0 234.4 L719.2 235.2 L715.1 239.2 L714.4 239.9 L714.3 240.0" fill="none" stroke="#B08D57" stroke-width="2" stroke-linecap="butt"/><path d="M970.0 0.0 L968.8 0.4 L964.0 2.2 L959.5 4.0 L959.2 4.1 L954.4 6.0 L949.6 8.0 L947.7 8.8 L944.8 10.0 L940.0 12.1 L936.8 13.6 L935.2 14.3 L930.4 16.5 L926.5 18.4 L925.6 18.8 L920.8 21.2 L916.7 23.2 L916.0 23.6 L911.2 26.0 L907.4 28.0 L906.4 28.6 L901.6 31.1 L898.6 32.8 L896.8 33.8 L892.0 36.5 L890.1 37.6 L887.2 39.3 L882.4 42.1 L882.0 42.4 L877.6 45.0 L874.1 47.2 L872.8 48.0 L868.0 51.0 L866.5 52.0 L863.2 54.1 L859.1 56.8 L858.4 57.3 L853.6 60.5 L851.9 61.6 L848.8 63.7 L844.9 66.4 L844.0 67.0 L839.2 70.4 L838.1 71.2 L834.4 73.8 L831.4 76.0 L829.6 77.3 L824.9 80.8 L824.8 80.8 L820.0 84.4 L818.4 85.6 L815.2 88.1 L812.1 90.4 L810.4 91.7 L805.9 95.2 L805.6 95.4 L800.8 99.2 L799.8 100.0 L796.0 103.0 L793.7 104.8 L791.2 106.8 L787.8 109.6 L786.4 110.7 L781.8 114.4 L781.6 114.6 L776.8 118.5 L776.0 119.2 L772.0 122.5 L770.2 124.0 L767.2 126.5 L764.4 128.8 L762.4 130.5 L758.7 133.6 L757.6 134.5 L753.0 138.4 L752.8 138.5 L748.0 142.6 L747.3 143.2 L743.2 146.6 L741.6 148.0 L738.4 150.7 L735.9 152.8 L733.6 154.8 L730.2 157.6 L728.8 158.8 L724.6 162.4 L724.0 162.9 L719.2 166.9 L718.8 167.2 L714.4 170.9 L713.1 172.0 L709.6 174.9 L707.3 176.8 L704.8 178.9 L701.5 181.6 L700.0 182.8 L695.6 186.4 L695.2 186.7 L690.4 190.6 L689.6 191.2 L685.6 194.4 L683.5 196.0 L680.8 198.1 L677.3 200.8 L676.0 201.8 L671.2 205.4 L671.0 205.6 L666.4 209.0 L664.4 210.4 L661.6 212.4 L657.7 215.2 L656.8 215.8 L652.0 219.1 L650.6 220.0 L647.2 222.3 L643.3 224.8 L642.4 225.4 L637.6 228.3 L635.5 229.6 L632.8 231.2 L628.0 233.9 L627.1 234.4 L623.2 236.5 L618.4 239.0 L618.0 239.2 L616.3 240.0 M448.1 240.0 L446.1 239.2 L445.6 239.0 L440.8 237.1 L436.0 235.2 L434.2 234.4 L431.2 233.1 L426.4 231.0 L423.2 229.6 L421.6 228.9 L416.8 226.7 L412.9 224.8 L412.0 224.4 L407.2 222.1 L403.0 220.0 L402.4 219.7 L397.6 217.3 L393.7 215.2 L392.8 214.8 L388.0 212.2 L384.6 210.4 L383.2 209.6 L378.4 207.0 L375.9 205.6 L373.6 204.3 L368.8 201.6 L367.5 200.8 L364.0 198.8 L359.2 196.0 L359.2 196.0 L354.4 193.1 L351.3 191.2 L349.6 190.2 L344.8 187.2 L343.5 186.4 L340.0 184.2 L335.8 181.6 L335.2 181.2 L330.4 178.1 L328.4 176.8 L325.6 175.0 L321.1 172.0 L320.8 171.8 L316.0 168.6 L313.9 167.2 L311.2 165.4 L306.9 162.4 L306.4 162.1 L301.6 158.8 L300.0 157.6 L296.8 155.4 L293.1 152.8 L292.0 152.0 L287.2 148.6 L286.4 148.0 L282.4 145.1 L279.8 143.2 L277.6 141.6 L273.3 138.4 L272.8 138.0 L268.0 134.4 L266.9 133.6 L263.2 130.8 L260.5 128.8 L258.4 127.2 L254.3 124.0 L253.6 123.5 L248.8 119.8 L248.1 119.2 L244.0 116.0 L241.9 114.4 L239.2 112.3 L235.8 109.6 L234.4 108.5 L229.8 104.8 L229.6 104.6 L224.8 100.8 L223.9 100.0 L220.0 96.9 L217.9 95.2 L215.2 93.0 L212.1 90.4 L210.4 89.0 L206.2 85.6 L205.6 85.1 L200.8 81.1 L200.5 80.8 L196.0 77.1 L194.7 76.0 L191.2 73.1 L189.0 71.2 L186.4 69.0 L183.3 66.4 L181.6 65.0 L177.6 61.6 L176.8 60.9 L172.0 56.8 L172.0 56.8 L167.2 52.7 L166.3 52.0 L162.4 48.7 L160.7 47.2 L157.6 44.5 L155.1 42.4 L152.8 40.4 L149.5 37.6 L148.0 36.3 L143.9 32.8 L143.2 32.2 L138.4 28.1 L138.3 28.0 L133.6 24.0 L132.6 23.2 L128.8 19.9 L127.0 18.4 L124.0 15.8 L121.3 13.6 L119.2 11.8 L115.7 8.8 L114.4 7.7 L110.0 4.0 L109.6 3.7 L105.2 0.0 M2170.7 240.0 L2169.3 239.2 L2168.8 238.9 L2164.0 236.2 L2160.9 234.4 L2159.2 233.5 L2154.4 230.8 L2152.3 229.6 L2149.6 228.1 L2144.8 225.4 L2143.7 224.8 L2140.0 222.7 L2135.2 220.1 L2135.0 220.0 L2130.4 217.5 L2126.2 215.2 L2125.6 214.9 L2120.8 212.3 L2117.3 210.4 L2116.0 209.7 L2111.2 207.1 L2108.4 205.6 L2106.4 204.6 L2101.6 202.0 L2099.3 200.8 L2096.8 199.5 L2092.0 197.0 L2090.1 196.0 L2087.2 194.5 L2082.4 192.0 L2080.9 191.2 L2077.6 189.5 L2072.8 187.1 L2071.5 186.4 L2068.0 184.6 L2063.2 182.2 L2062.0 181.6 L2058.4 179.8 L2053.6 177.4 L2052.4 176.8 L2048.8 175.0 L2044.0 172.6 L2042.8 172.0 L2039.2 170.3 L2034.4 167.9 L2032.9 167.2 L2029.6 165.6 L2024.8 163.3 L2023.0 162.4 L2020.0 160.9 L2015.2 158.7 L2013.0 157.6 L2010.4 156.4 L2005.6 154.1 L2002.8 152.8 L2000.8 151.9 L1996.0 149.6 L1992.5 148.0 L1991.2 147.4 L1986.4 145.2 L1982.1 143.2 L1981.6 143.0 L1976.8 140.8 L1972.0 138.6 L1971.5 138.4 L1967.2 136.5 L1962.4 134.3 L1960.8 133.6 L1957.6 132.2 L1952.8 130.1 L1949.9 128.8 L1948.0 127.9 L1943.2 125.8 L1938.9 124.0 L1938.4 123.8 L1933.6 121.7 L1928.8 119.6 L1927.8 119.2 L1924.0 117.6 L1919.2 115.6 L1916.4 114.4 L1914.4 113.6 L1909.6 111.5 L1904.9 109.6 L1904.8 109.6 L1900.0 107.6 L1895.2 105.6 L1893.2 104.8 L1890.4 103.7 L1885.6 101.7 L1881.3 100.0 L1880.8 99.8 L1876.0 97.9 L1871.2 96.0 L1869.2 95.2 L1866.4 94.1 L1861.6 92.2 L1856.9 90.4 L1856.8 90.4 L1852.0 88.5 L1847.2 86.7 L1844.4 85.6 L1842.4 84.8 L1837.6 83.0 L1832.8 81.2 L1831.7 80.8 L1828.0 79.4 L1823.2 77.7 L1818.7 76.0 L1818.4 75.9 L1813.6 74.1 L1808.8 72.4 L1805.4 71.2 L1804.0 70.7 L1799.2 69.0 L1794.4 67.3 L1791.9 66.4 L1789.6 65.6 L1784.8 63.9 L1780.0 62.3 L1778.1 61.6 L1775.2 60.6 L1770.4 59.0 L1765.6 57.4 L1763.9 56.8 L1760.8 55.7 L1756.0 54.1 L1751.2 52.6 L1749.5 52.0 L1746.4 51.0 L1741.6 49.4 L1736.8 47.9 L1734.7 47.2 L1732.0 46.3 L1727.2 44.8 L1722.4 43.3 L1719.4 42.4 L1717.6 41.8 L1712.8 40.3 L1708.0 38.9 L1703.8 37.6 L1703.2 37.4 L1698.4 36.0 L1693.6 34.5 L1688.8 33.1 L1687.7 32.8 L1684.0 31.7 L1679.2 30.3 L1674.4 28.9 L1671.1 28.0 L1669.6 27.6 L1664.8 26.2 L1660.0 24.9 L1655.2 23.5 L1653.9 23.2 L1650.4 22.2 L1645.6 20.9 L1640.8 19.6 L1636.2 18.4 L1636.0 18.4 L1631.2 17.1 L1626.4 15.8 L1621.6 14.6 L1617.7 13.6 L1616.8 13.4 L1612.0 12.2 L1607.2 11.0 L1602.4 9.8 L1598.4 8.8 L1597.6 8.6 L1592.8 7.4 L1588.0 6.3 L1583.2 5.2 L1578.4 4.1 L1578.2 4.0 L1573.6 2.9 L1568.8 1.8 L1564.0 0.8 L1560.5 0.0" fill="none" stroke="#1B2A4A" stroke-width="2" stroke-linecap="butt"/><path d="M832.3 0.0 L829.6 1.9 L826.8 4.0 L824.8 5.4 L820.2 8.8 L820.0 8.9 L815.2 12.5 L813.7 13.6 L810.4 16.1 L807.4 18.4 L805.6 19.7 L801.0 23.2 L800.8 23.4 L796.0 27.1 L794.8 28.0 L791.2 30.8 L788.6 32.8 L786.4 34.5 L782.5 37.6 L781.6 38.3 L776.8 42.1 L776.4 42.4 L772.0 45.9 L770.3 47.2 L767.2 49.7 L764.3 52.0 L762.4 53.5 L758.3 56.8 L757.6 57.3 L752.8 61.2 L752.3 61.6 L748.0 65.0 L746.3 66.4 L743.2 68.9 L740.3 71.2 L738.4 72.7 L734.3 76.0 L733.6 76.5 L728.8 80.3 L728.2 80.8 L724.0 84.2 L722.2 85.6 L719.2 88.0 L716.1 90.4 L714.4 91.7 L709.9 95.2 L709.6 95.5 L704.8 99.2 L703.8 100.0 L700.0 102.9 L697.5 104.8 L695.2 106.6 L691.2 109.6 L690.4 110.2 L685.6 113.8 L684.8 114.4 L680.8 117.3 L678.3 119.2 L676.0 120.9 L671.6 124.0 L671.2 124.3 L666.4 127.7 L664.8 128.8 L661.6 131.1 L657.9 133.6 L656.8 134.3 L652.0 137.6 L650.7 138.4 L647.2 140.7 L643.4 143.2 L642.4 143.8 L637.6 146.8 L635.7 148.0 L632.8 149.8 L628.0 152.6 L627.7 152.8 L623.2 155.4 L619.3 157.6 L618.4 158.1 L613.6 160.7 L610.4 162.4 L608.8 163.2 L604.0 165.6 L600.8 167.2 L599.2 168.0 L594.4 170.2 L590.3 172.0 L589.6 172.3 L584.8 174.3 L580.0 176.2 L578.5 176.8 L575.2 178.0 L570.4 179.7 L565.6 181.3 L564.7 181.6 L560.8 182.8 L556.0 184.2 L551.2 185.4 L547.1 186.4 L546.4 186.6 L541.6 187.6 L536.8 188.5 L532.0 189.3 L527.2 190.0 L522.4 190.6 L517.6 191.1 L516.4 191.2 L512.8 191.5 L508.0 191.7 L503.2 191.9 L498.4 192.0 L493.6 191.9 L488.8 191.8 L484.0 191.5 L479.9 191.2 L479.2 191.1 L474.4 190.7 L469.6 190.2 L464.8 189.5 L460.0 188.8 L455.2 187.9 L450.4 187.0 L447.4 186.4 L445.6 186.0 L440.8 184.9 L436.0 183.8 L431.2 182.5 L428.1 181.6 L426.4 181.1 L421.6 179.7 L416.8 178.2 L412.6 176.8 L412.0 176.6 L407.2 175.0 L402.4 173.2 L399.2 172.0 L397.6 171.4 L392.8 169.5 L388.0 167.6 L387.2 167.2 L383.2 165.5 L378.4 163.4 L376.1 162.4 L373.6 161.3 L368.8 159.0 L365.8 157.6 L364.0 156.7 L359.2 154.4 L356.2 152.8 L354.4 151.9 L349.6 149.4 L347.0 148.0 L344.8 146.9 L340.0 144.2 L338.2 143.2 L335.2 141.5 L330.4 138.8 L329.7 138.4 L325.6 136.0 L321.6 133.6 L320.8 133.1 L316.0 130.2 L313.8 128.8 L311.2 127.2 L306.4 124.2 L306.1 124.0 L301.6 121.1 L298.8 119.2 L296.8 117.9 L292.0 114.7 L291.5 114.4 L287.2 111.4 L284.5 109.6 L282.4 108.1 L277.7 104.8 L277.6 104.8 L272.8 101.3 L271.0 100.0 L268.0 97.9 L264.4 95.2 L263.2 94.3 L258.4 90.7 L257.9 90.4 L253.6 87.1 L251.6 85.6 L248.8 83.4 L245.4 80.8 L244.0 79.7 L239.3 76.0 L239.2 75.9 L234.4 72.1 L233.2 71.2 L229.6 68.3 L227.3 66.4 L224.8 64.4 L221.4 61.6 L220.0 60.4 L215.7 56.8 L215.2 56.4 L210.4 52.4 L209.9 52.0 L205.6 48.3 L204.3 47.2 L200.8 44.2 L198.7 42.4 L196.0 40.1 L193.2 37.6 L191.2 35.9 L187.7 32.8 L186.4 31.7 L182.3 28.0 L181.6 27.4 L176.9 23.2 L176.8 23.1 L172.0 18.8 L171.5 18.4 L167.2 14.5 L166.2 13.6 L162.4 10.1 L160.9 8.8 L157.6 5.8 L155.7 4.0 L152.8 1.4 L151.3 0.0 M2253.3 240.0 L2252.0 239.2 L2250.4 238.2 L2245.6 235.3 L2244.1 234.4 L2240.8 232.4 L2236.2 229.6 L2236.0 229.5 L2231.2 226.6 L2228.1 224.8 L2226.4 223.8 L2221.6 220.9 L2220.1 220.0 L2216.8 218.1 L2212.0 215.3 L2211.9 215.2 L2207.2 212.4 L2203.7 210.4 L2202.4 209.6 L2197.6 206.9 L2195.4 205.6 L2192.8 204.1 L2188.0 201.4 L2187.0 200.8 L2183.2 198.6 L2178.6 196.0 L2178.4 195.9 L2173.6 193.2 L2170.1 191.2 L2168.8 190.5 L2164.0 187.8 L2161.5 186.4 L2159.2 185.1 L2154.4 182.5 L2152.8 181.6 L2149.6 179.8 L2144.8 177.2 L2144.1 176.8 L2140.0 174.6 L2135.2 172.0 L2135.2 172.0 L2130.4 169.4 L2126.3 167.2 L2125.6 166.8 L2120.8 164.3 L2117.3 162.4 L2116.0 161.7 L2111.2 159.2 L2108.2 157.6 L2106.4 156.6 L2101.6 154.1 L2099.0 152.8 L2096.8 151.6 L2092.0 149.2 L2089.7 148.0 L2087.2 146.7 L2082.4 144.2 L2080.4 143.2 L2077.6 141.8 L2072.8 139.3 L2070.9 138.4 L2068.0 136.9 L2063.2 134.5 L2061.4 133.6 L2058.4 132.1 L2053.6 129.7 L2051.7 128.8 L2048.8 127.4 L2044.0 125.0 L2041.9 124.0 L2039.2 122.7 L2034.4 120.3 L2032.0 119.2 L2029.6 118.0 L2024.8 115.7 L2022.1 114.4 L2020.0 113.4 L2015.2 111.1 L2012.0 109.6 L2010.4 108.9 L2005.6 106.6 L2001.7 104.8 L2000.8 104.4 L1996.0 102.1 L1991.4 100.0 L1991.2 99.9 L1986.4 97.7 L1981.6 95.5 L1980.9 95.2 L1976.8 93.3 L1972.0 91.1 L1970.3 90.4 L1967.2 89.0 L1962.4 86.8 L1959.6 85.6 L1957.6 84.7 L1952.8 82.6 L1948.8 80.8 L1948.0 80.5 L1943.2 78.4 L1938.4 76.3 L1937.8 76.0 L1933.6 74.2 L1928.8 72.1 L1926.6 71.2 L1924.0 70.1 L1919.2 68.0 L1915.3 66.4 L1914.4 66.0 L1909.6 64.0 L1904.8 62.0 L1903.9 61.6 L1900.0 60.0 L1895.2 58.0 L1892.2 56.8 L1890.4 56.0 L1885.6 54.1 L1880.8 52.1 L1880.5 52.0 L1876.0 50.2 L1871.2 48.3 L1868.5 47.2 L1866.4 46.4 L1861.6 44.5 L1856.8 42.6 L1856.3 42.4 L1852.0 40.7 L1847.2 38.8 L1844.0 37.6 L1842.4 37.0 L1837.6 35.1 L1832.8 33.3 L1831.4 32.8 L1828.0 31.5 L1823.2 29.7 L1818.6 28.0 L1818.4 27.9 L1813.6 26.1 L1808.8 24.4 L1805.6 23.2 L1804.0 22.6 L1799.2 20.8 L1794.4 19.1 L1792.4 18.4 L1789.6 17.4 L1784.8 15.7 L1780.0 14.0 L1778.9 13.6 L1775.2 12.3 L1770.4 10.6 L1765.6 8.9 L1765.2 8.8 L1760.8 7.3 L1756.0 5.6 L1751.2 4.0 L1751.1 4.0 L1746.4 2.4 L1741.6 0.8 L1739.2 0.0" fill="none" stroke="#1B2A4A" stroke-width="2" stroke-linecap="butt"/></svg>